<svg width="25" height="24" viewBox="0 0 25 24" fill="none" xmlns="http://www.w3.org/2000/svg">
<g clip-path="url(#clip0_1_65)">
<path d="M2.85043 12.7335H4.91821C5.07515 12.7335 5.22053 12.8122 5.30702 12.942C5.30702 12.942 5.70104 13.5405 6.09432 14.1341C6.31239 12.1894 7.07173 5.39135 7.07173 5.39135C7.09783 5.1671 7.28086 4.9901 7.50825 4.97698C7.61739 4.97031 7.72536 5.00262 7.81313 5.06821C7.9009 5.13379 7.96283 5.22845 7.98801 5.33548C7.98801 5.33548 8.9781 9.51185 9.44668 11.4851L10.0666 9.7196C10.0984 9.62858 10.1573 9.54966 10.2354 9.49364C10.3135 9.43762 10.4069 9.40725 10.5028 9.40668C10.5987 9.4061 10.6924 9.43535 10.7711 9.49043C10.8499 9.54551 10.9098 9.62372 10.9426 9.71435C10.9426 9.71435 11.8623 12.2272 12.0464 12.7335H13.8409C13.9979 12.7335 14.1433 12.8122 14.2294 12.942C14.2294 12.942 14.6238 13.5405 15.0163 14.1345C15.2351 12.1897 15.9945 5.39173 15.9945 5.39173C16.0068 5.28213 16.0572 5.18043 16.1367 5.1045C16.2162 5.02858 16.3198 4.9833 16.4293 4.97662C16.5387 4.96995 16.647 5.00231 16.7351 5.06802C16.8231 5.13372 16.8853 5.22856 16.9107 5.33585L18.3687 11.4855L18.9897 9.71998C19.0215 9.62904 19.0804 9.5502 19.1584 9.49424C19.2364 9.43828 19.3297 9.40794 19.4255 9.40736C19.5213 9.40679 19.615 9.43601 19.6936 9.49103C19.7723 9.54605 19.8321 9.62418 19.865 9.71473C19.865 9.71473 20.7857 12.2276 20.9695 12.7339H22.8036L22.9012 12.5464C23.7922 11.0044 24.4427 8.1491 24.4427 6.06973C24.4427 3.4166 22.5232 0.211853 18.7828 0.211853C13.438 0.211853 12.751 5.24848 12.751 5.24848C12.751 5.24848 12.0882 0.236228 6.74667 0.236228C3.13822 0.236228 1.2024 3.32473 1.2024 6.06973C1.2024 8.44048 2.23424 11.367 2.76283 12.5689L2.85043 12.7335Z" fill="#642DFF"/>
<path d="M20.6445 13.671C20.4484 13.671 20.2743 13.5476 20.2076 13.3642L19.4367 11.2579L18.7228 13.2949C18.6538 13.491 18.4656 13.6181 18.2594 13.6058C18.1589 13.6011 18.0626 13.5634 17.9852 13.4986C17.9079 13.4337 17.8538 13.3452 17.8311 13.2465L16.6241 8.15887L15.801 15.5175C15.7902 15.613 15.7503 15.7029 15.6869 15.7748C15.6234 15.8468 15.5395 15.8973 15.4465 15.9195C15.3537 15.9422 15.2562 15.9357 15.1672 15.9007C15.0782 15.8658 15.0021 15.8041 14.9492 15.7241C14.9492 15.7241 13.8197 14.0138 13.5916 13.6706H11.7217C11.6265 13.6705 11.5337 13.641 11.4556 13.5862C11.3776 13.5313 11.3181 13.4537 11.2852 13.3639L10.5143 11.2579C10.2753 11.9367 10.0368 12.6157 9.79858 13.2949C9.76544 13.3903 9.70228 13.4723 9.61867 13.5284C9.53506 13.5845 9.43555 13.6116 9.33522 13.6058C9.23456 13.6008 9.13824 13.5631 9.06072 13.4983C8.98321 13.4335 8.92871 13.3451 8.90541 13.2465L7.7006 8.16225L6.87789 15.5175C6.86703 15.613 6.82722 15.7028 6.76386 15.7747C6.7005 15.8466 6.61667 15.8972 6.52375 15.9195C6.4309 15.9422 6.33335 15.9356 6.24433 15.9007C6.15531 15.8657 6.07913 15.8041 6.0261 15.7241C6.0261 15.7241 4.89659 14.0138 4.66846 13.6706H3.35666C6.69821 19.6433 12.751 23.577 12.751 23.577C12.751 23.577 18.9133 19.6425 22.3081 13.6706H20.6448L20.6445 13.671Z" fill="#642DFF"/>
</g>
<defs>
<clipPath id="clip0_1_65">
<rect width="23.8576" height="24" fill="white" transform="translate(0.806885)"/>
</clipPath>
</defs>
</svg>
