<svg width="18" height="23" viewBox="0 0 18 23" fill="none" xmlns="http://www.w3.org/2000/svg">
<path d="M3.1275 0.5H2.25C1.65326 0.5 1.08097 0.737053 0.65901 1.15901C0.237053 1.58097 0 2.15326 0 2.75V20.75C0 21.3467 0.237053 21.919 0.65901 22.341C1.08097 22.7629 1.65326 23 2.25 23H15.75C16.3467 23 16.919 22.7629 17.341 22.341C17.7629 21.919 18 21.3467 18 20.75V2.75C18 2.15326 17.7629 1.58097 17.341 1.15901C16.919 0.737053 16.3467 0.5 15.75 0.5H14.8725C14.955 0.734 15 0.9875 15 1.25V2C15 2.59674 14.7629 3.16903 14.341 3.59099C13.919 4.01295 13.3467 4.25 12.75 4.25H5.25C4.65326 4.25 4.08097 4.01295 3.65901 3.59099C3.23705 3.16903 3 2.59674 3 2V1.25C3 0.9875 3.045 0.734 3.1275 0.5ZM13.281 10.781L8.781 15.281C8.71133 15.3508 8.62857 15.4063 8.53745 15.4441C8.44633 15.4819 8.34865 15.5013 8.25 15.5013C8.15135 15.5013 8.05367 15.4819 7.96255 15.4441C7.87143 15.4063 7.78867 15.3508 7.719 15.281L5.469 13.031C5.39927 12.9613 5.34395 12.8785 5.30621 12.7874C5.26848 12.6963 5.24905 12.5986 5.24905 12.5C5.24905 12.4014 5.26848 12.3037 5.30621 12.2126C5.34395 12.1215 5.39927 12.0387 5.469 11.969C5.60983 11.8282 5.80084 11.7491 6 11.7491C6.09862 11.7491 6.19627 11.7685 6.28738 11.8062C6.37848 11.844 6.46127 11.8993 6.531 11.969L8.25 13.6895L12.219 9.719C12.3598 9.57817 12.5508 9.49905 12.75 9.49905C12.9492 9.49905 13.1402 9.57817 13.281 9.719C13.4218 9.85983 13.5009 10.0508 13.5009 10.25C13.5009 10.4492 13.4218 10.6402 13.281 10.781Z" fill="#2D42FF"/>
</svg>
