<svg width="18" height="24" viewBox="0 0 18 24" fill="none" xmlns="http://www.w3.org/2000/svg">
<path d="M9.04463 12.8171C10.8165 12.8171 11.6381 14.1622 11.8114 16.0717C11.8523 16.5289 11.8095 17.1949 11.751 17.9666C11.5519 20.5301 11.3228 23.6801 13.0298 23.6801C14.4731 23.6801 15.2149 20.9104 15.6428 17.7536C16.056 14.6284 15.6184 13.0732 15.8333 11.6857C16.2435 9.0566 18.5389 6.69935 17.8298 3.34685C17.4371 1.48723 16.4134 0.612355 15.3986 0.244855C13.062 -0.605645 11.553 1.0331 9.04388 1.0331C6.53476 1.0331 5.02613 -0.605645 2.68838 0.244855C1.67476 0.612355 0.651008 1.48723 0.257633 3.34685C-0.450742 6.69898 1.84351 9.0566 2.25488 11.6857C2.46976 13.0732 2.03251 14.6284 2.44576 17.7536C2.87363 20.9107 3.61538 23.6801 5.05876 23.6801C6.76463 23.6801 6.53701 20.5301 6.33751 17.9666C6.27901 17.1952 6.23588 16.5289 6.27676 16.0717C6.44926 14.1622 7.28251 12.8171 9.04388 12.8171H9.04463Z" fill="#2DA7FF"/>
</svg>
