<svg width="82" height="18" viewBox="0 0 82 18" fill="none" xmlns="http://www.w3.org/2000/svg">
<path d="M42.2183 17.3764V6.46733H45.1018V8.39205H45.2296C45.4569 7.75284 45.8357 7.24858 46.366 6.87926C46.8963 6.50994 47.5308 6.32528 48.2694 6.32528C49.0175 6.32528 49.6543 6.51231 50.1799 6.88636C50.7055 7.25568 51.0559 7.75758 51.231 8.39205H51.3447C51.5672 7.76705 51.9697 7.26752 52.5521 6.89347C53.1392 6.51468 53.8328 6.32528 54.633 6.32528C55.651 6.32528 56.4773 6.64962 57.1117 7.2983C57.7509 7.94223 58.0705 8.85606 58.0705 10.0398V17.3764H55.0521V10.6364C55.0521 10.0303 54.8911 9.57576 54.5691 9.27273C54.2471 8.9697 53.8447 8.81818 53.3617 8.81818C52.8125 8.81818 52.384 8.99337 52.0762 9.34375C51.7685 9.68939 51.6146 10.1463 51.6146 10.7145V17.3764H48.6813V10.5724C48.6813 10.0374 48.5274 9.61127 48.2197 9.29403C47.9167 8.9768 47.5166 8.81818 47.0194 8.81818C46.6832 8.81818 46.3802 8.90341 46.1103 9.07386C45.8452 9.23958 45.6345 9.47396 45.4782 9.77699C45.322 10.0753 45.2438 10.4257 45.2438 10.8281V17.3764H42.2183Z" fill="#642DFF"/>
<path d="M60.4604 17.3764V6.46733H63.486V17.3764H60.4604ZM61.9803 5.06108C61.5305 5.06108 61.1446 4.91193 60.8227 4.61364C60.5054 4.31061 60.3468 3.94839 60.3468 3.52699C60.3468 3.11032 60.5054 2.75284 60.8227 2.45455C61.1446 2.15152 61.5305 2 61.9803 2C62.4301 2 62.8137 2.15152 63.1309 2.45455C63.4529 2.75284 63.6139 3.11032 63.6139 3.52699C63.6139 3.94839 63.4529 4.31061 63.1309 4.61364C62.8137 4.91193 62.4301 5.06108 61.9803 5.06108Z" fill="#642DFF"/>
<path d="M70.8386 17.5895C69.7212 17.5895 68.76 17.3527 67.9551 16.8793C67.1549 16.401 66.5394 15.7382 66.1085 14.8906C65.6824 14.0431 65.4693 13.0677 65.4693 11.9645C65.4693 10.8471 65.6848 9.86695 66.1156 9.02415C66.5512 8.17661 67.1691 7.5161 67.9693 7.04261C68.7695 6.56439 69.7212 6.32528 70.8244 6.32528C71.7761 6.32528 72.6095 6.49811 73.3244 6.84375C74.0394 7.18939 74.6052 7.67472 75.0219 8.29972C75.4386 8.92472 75.6682 9.65862 75.7108 10.5014H72.8557C72.7752 9.95691 72.5621 9.51894 72.2165 9.1875C71.8756 8.85133 71.4281 8.68324 70.8742 8.68324C70.4054 8.68324 69.9958 8.81108 69.6455 9.06676C69.2998 9.31771 69.0299 9.68466 68.8358 10.1676C68.6417 10.6506 68.5446 11.2353 68.5446 11.9219C68.5446 12.6179 68.6393 13.2098 68.8287 13.6974C69.0228 14.1851 69.2951 14.5568 69.6455 14.8125C69.9958 15.0682 70.4054 15.196 70.8742 15.196C71.2198 15.196 71.5299 15.125 71.8046 14.983C72.0839 14.8409 72.3136 14.6349 72.4935 14.3651C72.6781 14.0904 72.7989 13.7614 72.8557 13.3778H75.7108C75.6635 14.2112 75.4362 14.9451 75.029 15.5795C74.6265 16.2093 74.0702 16.7017 73.36 17.0568C72.6497 17.4119 71.8093 17.5895 70.8386 17.5895Z" fill="#642DFF"/>
<path d="M79.4164 17.5611C78.9477 17.5611 78.5452 17.3954 78.209 17.0639C77.8776 16.7277 77.7119 16.3253 77.7119 15.8565C77.7119 15.3925 77.8776 14.9948 78.209 14.6634C78.5452 14.3319 78.9477 14.1662 79.4164 14.1662C79.871 14.1662 80.2687 14.3319 80.6096 14.6634C80.9505 14.9948 81.121 15.3925 81.121 15.8565C81.121 16.169 81.0405 16.4555 80.8795 16.7159C80.7232 16.9716 80.5173 17.1776 80.2616 17.3338C80.0059 17.4853 79.7242 17.5611 79.4164 17.5611Z" fill="#642DFF"/>
<path d="M6.1875 17.4545H0V0H6.23864C7.99432 0 9.50568 0.349432 10.7727 1.0483C12.0398 1.74148 13.0142 2.73864 13.696 4.03977C14.3835 5.34091 14.7273 6.89773 14.7273 8.71023C14.7273 10.5284 14.3835 12.0909 13.696 13.3977C13.0142 14.7045 12.0341 15.7074 10.7557 16.4062C9.48295 17.1051 7.96023 17.4545 6.1875 17.4545ZM3.69034 14.2926H6.03409C7.125 14.2926 8.04261 14.0994 8.78693 13.7131C9.53693 13.321 10.0994 12.7159 10.4744 11.8977C10.8551 11.0739 11.0455 10.0114 11.0455 8.71023C11.0455 7.42045 10.8551 6.36648 10.4744 5.5483C10.0994 4.73011 9.53977 4.12784 8.79545 3.74148C8.05114 3.35511 7.13352 3.16193 6.04261 3.16193H3.69034V14.2926Z" fill="#2D89FF"/>
<path d="M22.0803 17.6676C20.977 17.6676 20.023 17.4332 19.218 16.9645C18.4178 16.491 17.8 15.8329 17.3643 14.9901C16.9287 14.1425 16.7109 13.16 16.7109 12.0426C16.7109 10.9157 16.9287 9.93087 17.3643 9.08807C17.8 8.24053 18.4178 7.58239 19.218 7.11364C20.023 6.64015 20.977 6.40341 22.0803 6.40341C23.1835 6.40341 24.1352 6.64015 24.9354 7.11364C25.7403 7.58239 26.3606 8.24053 26.7962 9.08807C27.2318 9.93087 27.4496 10.9157 27.4496 12.0426C27.4496 13.16 27.2318 14.1425 26.7962 14.9901C26.3606 15.8329 25.7403 16.491 24.9354 16.9645C24.1352 17.4332 23.1835 17.6676 22.0803 17.6676ZM22.0945 15.3239C22.5964 15.3239 23.0154 15.1818 23.3516 14.8977C23.6877 14.6089 23.9411 14.2159 24.1115 13.7188C24.2867 13.2216 24.3743 12.6558 24.3743 12.0213C24.3743 11.3868 24.2867 10.821 24.1115 10.3239C23.9411 9.8267 23.6877 9.43371 23.3516 9.14489C23.0154 8.85606 22.5964 8.71165 22.0945 8.71165C21.5878 8.71165 21.1617 8.85606 20.8161 9.14489C20.4751 9.43371 20.2171 9.8267 20.0419 10.3239C19.8714 10.821 19.7862 11.3868 19.7862 12.0213C19.7862 12.6558 19.8714 13.2216 20.0419 13.7188C20.2171 14.2159 20.4751 14.6089 20.8161 14.8977C21.1617 15.1818 21.5878 15.3239 22.0945 15.3239Z" fill="#2D89FF"/>
<path d="M34.3459 17.6676C33.2285 17.6676 32.2673 17.4309 31.4624 16.9574C30.6622 16.4792 30.0466 15.8163 29.6158 14.9688C29.1896 14.1212 28.9766 13.1458 28.9766 12.0426C28.9766 10.9252 29.192 9.94508 29.6229 9.10227C30.0585 8.25473 30.6764 7.59422 31.4766 7.12074C32.2767 6.64252 33.2285 6.40341 34.3317 6.40341C35.2834 6.40341 36.1167 6.57623 36.8317 6.92188C37.5466 7.26752 38.1125 7.75284 38.5291 8.37784C38.9458 9.00284 39.1754 9.73674 39.218 10.5795H36.3629C36.2824 10.035 36.0694 9.59706 35.7237 9.26562C35.3828 8.92945 34.9354 8.76136 34.3814 8.76136C33.9126 8.76136 33.5031 8.8892 33.1527 9.14489C32.8071 9.39583 32.5372 9.76278 32.343 10.2457C32.1489 10.7287 32.0518 11.3134 32.0518 12C32.0518 12.696 32.1465 13.2879 32.3359 13.7756C32.5301 14.2633 32.8023 14.6349 33.1527 14.8906C33.5031 15.1463 33.9126 15.2741 34.3814 15.2741C34.727 15.2741 35.0372 15.2031 35.3118 15.0611C35.5911 14.919 35.8208 14.7131 36.0007 14.4432C36.1854 14.1686 36.3061 13.8395 36.3629 13.456H39.218C39.1707 14.2893 38.9434 15.0232 38.5362 15.6577C38.1338 16.2874 37.5774 16.7798 36.8672 17.1349C36.157 17.4901 35.3165 17.6676 34.3459 17.6676Z" fill="#2D89FF"/>
</svg>
